<svg
   xmlns:dc="http://purl.org/dc/elements/1.1/"
   xmlns:cc="http://creativecommons.org/ns#"
   xmlns:rdf="http://www.w3.org/1999/02/22-rdf-syntax-ns#"
   xmlns:svg="http://www.w3.org/2000/svg"
   xmlns="http://www.w3.org/2000/svg"
   xmlns:xlink="http://www.w3.org/1999/xlink"
   id="svg125"
   version="1.1"
   viewBox="0 1  380 280">
  <metadata
     id="metadata131">
    <rdf:RDF>
      <cc:Work
         rdf:about="">
        <dc:format>image/svg+xml</dc:format>
        <dc:type
           rdf:resource="http://purl.org/dc/dcmitype/StillImage" />
      </cc:Work>
    </rdf:RDF>
  </metadata>
  <defs
     id="defs129" />
  <svg
     id="svg58"
     version="1.1"
     height="48.330578"
     width="64"
     y="93.923576"
     x="158">
    <svg
       height="100%"
       width="100%"
       id="svg56"
       version="1.1"
       viewBox="4.8 51.3 290.4 219.3">
      <mask
         id="id__49344535">
        <svg
           id="svg20"
           version="1.1"
           height="258.11414"
           width="300"
           y="20.942938"
           x="0.0">
          <svg
             height="100%"
             width="100%"
             id="svg18"
             version="1.1"
             viewBox="0 0 247.1 212.6"
             enable-background="new 0 0 247.1 212.6">
            <rect
               style="fill:#000000"
               id="rect2"
               height="212.60001"
               width="247.10001"
               y="0"
               x="0" />
            <g
               style="fill:#ffffff"
               id="g16">
              <path
                 style="fill:#ffffff"
                 id="path4"
                 d="M 176.5,212.6 H 77.2 l 49.6,-85.9 h 0.1 z" />
              <path
                 style="fill:#ffffff"
                 id="path6"
                 d="m 247.1,212.6 h -70.6 l -49.6,-85.9 h 70.3 z" />
              <path
                 style="fill:#ffffff"
                 id="path8"
                 d="m 126.9,126.6 -49.7,86 H 0 l 50,-86 z" />
              <path
                 style="fill:#ffffff"
                 id="path10"
                 d="m 126.9,126.7 -0.1,0.1 h -0.2 v -0.1 H 49.9 l 11.9,-20.4 26.7,-46 z" />
              <path
                 style="fill:#ffffff"
                 id="path12"
                 d="M 197.2,126.7 H 127 l -0.1,-0.1 35,-60.6 23.4,40.3 z" />
              <path
                 style="fill:#ffffff"
                 id="path14"
                 d="M 161.8,65.9 126.9,126.5 88.6,60.2 123.5,0 Z" />
            </g>
          </svg>
        </svg>
      </mask>
      <g
         id="g54"
         class="cls__7406283"
         mask="url(#id__49344535)">
        <svg
           id="svg52"
           version="1.1"
           height="240.75644"
           width="300"
           y="29.621778"
           x="0.0">
          <svg
             height="100%"
             width="100%"
             id="svg50"
             version="1.1"
             viewBox="0 0 799.53 641.64">
            <g
               style="fill:#5179b1"
               id="g48">
              <linearGradient
                 y2="377.51999"
                 y1="37.509998"
                 x2="326.56"
                 x1="88.480003"
                 gradientUnits="userSpaceOnUse"
                 id="id__59528484">
                <stop
                   id="stop23"
                   stop-color="#5179B1"
                   offset="1" />
                <stop
                   id="stop25"
                   stop-color="#5179B1"
                   offset="1" />
              </linearGradient>
              <linearGradient
                 id="id__54882102">
                <stop
                   id="stop28"
                   stop-color="#5179B1"
                   offset="1" />
                <stop
                   id="stop30"
                   stop-color="#5179B1"
                   offset="1" />
              </linearGradient>
              <linearGradient
                 y2="582.46997"
                 y1="267.78"
                 xlink:href="#id__54882102"
                 x2="217.91"
                 x1="77.800003"
                 gradientUnits="userSpaceOnUse"
                 id="id__15365825" />
              <linearGradient
                 y2="628.23999"
                 y1="187.35001"
                 xlink:href="#id__54882102"
                 x2="475.03"
                 x1="278.73999"
                 gradientUnits="userSpaceOnUse"
                 id="id__46221825" />
              <linearGradient
                 y2="653.89001"
                 y1="561.75"
                 x2="565.84003"
                 x1="561.01001"
                 gradientUnits="userSpaceOnUse"
                 id="id__40367504">
                <stop
                   id="stop35"
                   stop-color="#5179B1"
                   offset="1" />
                <stop
                   id="stop37"
                   stop-color="#5179B1"
                   offset="1" />
              </linearGradient>
              <path
                 style="fill:url(#id__59528484)"
                 id="path40"
                 d="M 207.52,0 C 92.91,0 0,92.91 0,207.52 A 207.43,207.43 0 0 0 103.77,387.28 L 265,108 349.71,254.69 408,153.74 C 384.31,65.2 303.53,0 207.52,0 Z" />
              <path
                 style="fill:url(#id__15365825)"
                 id="path42"
                 d="M 267.46,183.34 2.86,641.64 h 82.15 l 182.45,-316.02 20.65,35.77 41.08,-71.15 z" />
              <path
                 style="fill:url(#id__46221825)"
                 id="path44"
                 d="M 592.85,441.67 H 443.79 l -40.66,72.27 H 731.76 L 489.96,93.3 173.39,641.64 h 98.28 L 489.96,263.53 Z" />
              <path
                 style="fill:url(#id__40367504)"
                 id="path46"
                 d="M 799.53,641.64 H 330.86 l 41.78,-70.02 h 383.98 z" />
            </g>
          </svg>
        </svg>
      </g>
    </svg>
  </svg>
  <g
     transform="translate(190,157.79029)"
     id="id__38052287">
    <g
       id="text60"
       style="font-size:19.375px;font-family:'IdeaFonts JianSong';fill:#5179b1"
       aria-label="T">
      <path
         id="path133"
         style="font-size:19.375px;font-family:'IdeaFonts JianSong';fill:#5179b1"
         d="m -84.383633,-7.7318359 h 11.27625 v 4.863125 h -0.8525 q -0.155,-0.871875 -0.465,-1.66625 -0.31,-0.81375 -0.73625,-1.3175 -0.31,-0.368125 -0.794375,-0.561875 -0.484375,-0.213125 -1.065625,-0.251875 l 0.01938,11.74125 h 1.97625 v 1.4725 h -7.3625 v -1.4725 h 1.995625 v -11.74125 q -0.523125,0.0775 -1.026875,0.31 -0.50375,0.213125 -0.8525,0.5425 -0.465,0.445625 -0.794375,1.220625 -0.329375,0.775 -0.50375,1.724375 h -0.81375 z" />
    </g>
    <g
       id="text62"
       style="font-size:19.375px;font-family:'IdeaFonts JianSong';fill:#5179b1"
       aria-label="a">
      <path
         id="path136"
         style="font-size:19.375px;font-family:'IdeaFonts JianSong';fill:#5179b1"
         d="m -67.423477,0.63816406 v -1.35625 q 0,-0.29062496 -0.01937,-0.56187496 -0.01937,-0.290625 -0.09687,-0.50375 -0.135625,-0.31 -0.5425,-0.31 -0.368125,0 -0.65875,0.174375 -0.135625,0.058125 -0.135625,0.213125 l 0.01938,0.0775 q 0,0.0775 0.05812,0.155 0.05813,0.0775 0.0775,0.096875 0.2325,0.290625 0.2325,0.71687496 0,0.6975 -0.484375,1.065625 -0.465,0.34875 -1.143125,0.31 -0.484375,-0.019375 -0.833125,-0.445625 -0.329375,-0.42625 -0.329375,-0.96875 0,-0.52312496 0.27125,-1.00749996 0.27125,-0.50375 0.6975,-0.755625 1.085,-0.716875 2.51875,-0.716875 1.66625,0 2.67375,0.775 0.775,0.561875 0.775,2.07312496 V 3.7187891 q 0,0.445625 0.0775,0.65875 0.05812,0.11625 0.19375,0.11625 0.05813,0 0.09687,-0.019375 0.0775,-0.019375 0.19375,-0.11625 0.135625,-0.096875 0.251875,-0.213125 l 0.5425,0.445625 q -0.484375,0.833125 -1.181875,1.336875 -0.6975,0.484375 -1.414375,0.50375 -0.42625,0.058125 -0.910625,-0.096875 -0.465,-0.174375 -0.62,-0.50375 l -0.135625,-0.290625 q -1.104375,0.794375 -2.383125,0.794375 -0.600625,0 -1.143125,-0.213125 -0.523125,-0.213125 -0.833125,-0.639375 -0.3875,-0.523125 -0.3875,-1.35625 0,-0.368125 0.05812,-0.678125 0.2325,-0.755625 0.833125,-1.24 0.600625,-0.50375 1.220625,-0.755625 0.639375,-0.251875 1.7825,-0.62000004 z m 0,3.77812504 v -2.59625 q -0.03875,0.019375 -0.09687,0.03875 -0.05813,0.019375 -0.11625,0.058125 -0.8525,0.329375 -1.298125,1.085 -0.19375,0.34875 -0.19375,0.716875 0,0.290625 0.174375,0.561875 0.135625,0.213125 0.34875,0.34875 0.2325,0.135625 0.484375,0.135625 0.465,0.03875 0.600625,-0.19375 z" />
    </g>
    <g
       id="text64"
       style="font-size:19.375px;font-family:'IdeaFonts JianSong';fill:#5179b1"
       aria-label="c">
      <path
         id="path139"
         style="font-size:19.375px;font-family:'IdeaFonts JianSong';fill:#5179b1"
         d="m -54.02832,3.8931641 q -0.445625,1.298125 -1.4725,1.9375 -1.0075,0.639375 -2.20875,0.639375 -0.93,0 -1.763125,-0.3875 -0.833125,-0.406875 -1.414375,-1.24 -0.42625,-0.58125 -0.65875,-1.491875 -0.2325,-0.910625 -0.2325,-1.918125 0,-0.368125 0.01938,-0.54250004 0.03875,-0.794375 0.368125,-1.530625 0.329375,-0.73624996 0.89125,-1.29812496 0.639375,-0.62 1.43375,-0.93 0.794375,-0.329375 1.66625,-0.329375 1.0075,0 1.86,0.406875 0.871875,0.406875 1.20125,1.143125 0.19375,0.484375 0.19375,0.91062496 0,0.465 -0.213125,0.89125 -0.213125,0.368125 -0.600625,0.600625 -0.368125,0.2325 -0.794375,0.213125 -0.406875,0.019375 -0.755625,-0.19375 -0.329375,-0.2325 -0.50375,-0.600625 -0.174375,-0.3875 -0.135625,-0.775 0.03875,-0.60062496 0.406875,-0.81374996 l 0.155,-0.058125 q 0.19375,-0.0775 0.19375,-0.213125 v -0.019375 q -0.03875,-0.096875 -0.155,-0.135625 -0.09688,-0.058125 -0.11625,-0.058125 -0.174375,-0.058125 -0.34875,-0.058125 -0.31,0 -0.523125,0.135625 -0.31,0.19375 -0.5425,0.561875 -0.2325,0.36812496 -0.290625,0.75562496 -0.155,0.639375 -0.155,1.4725 0,0.38750004 0.0775,1.20125004 0.05812,0.561875 0.27125,1.143125 0.2325,0.561875 0.58125,0.988125 0.34875,0.445625 1.04625,0.445625 0.290625,0 0.406875,-0.03875 0.31,-0.0775 0.678125,-0.3875 0.368125,-0.31 0.639375,-0.755625 z" />
    </g>
    <g
       id="text66"
       style="font-size:19.375px;font-family:'IdeaFonts JianSong';fill:#5179b1"
       aria-label="h">
      <path
         id="path142"
         style="font-size:19.375px;font-family:'IdeaFonts JianSong';fill:#5179b1"
         d="m -42.238867,5.1525391 v 1.43375 h -4.8825 v -1.43375 h 0.81375 V 0.13441406 q 0,-0.5425 -0.251875,-0.81375 -0.213125,-0.251875 -0.600625,-0.251875 -0.62,0 -1.259375,0.89125 V 5.1525391 h 0.73625 v 1.43375 h -4.979375 v -1.43375 h 1.085 v -11.140625 h -0.949375 v -0.871875 l 3.06125,-0.81375 h 1.065625 l -0.01937,6.025625 q 0.62,-0.65875 1.375625,-1.065625 0.755625,-0.42625 1.51125,-0.42625 1.04625,0 1.724375,0.62 0.58125,0.5425 0.58125,1.89874996 V 5.1525391 Z" />
    </g>
    <g
       id="text68"
       style="font-size:19.375px;font-family:'IdeaFonts JianSong';fill:#5179b1"
       aria-label="y">
      <path
         id="path145"
         style="font-size:19.375px;font-family:'IdeaFonts JianSong';fill:#5179b1"
         d="m -39.633164,5.5981641 q 0.561875,0 0.96875,0.406875 0.42625,0.3875 0.42625,0.910625 0,0.11625 -0.03875,0.31 -0.09688,0.42625 -0.42625,0.62 -0.174375,0.135625 -0.213125,0.2325 -0.01938,0.0775 0.0775,0.155 0.11625,0.058125 0.213125,0.058125 0.251875,0 0.3875,-0.174375 0.19375,-0.174375 0.27125,-0.3875 l 0.949375,-1.840625 -2.945,-7.63375 h -1.04625 v -1.43375 h 5.250625 v 1.43375 h -0.73625 l 1.375625,3.390625 1.43375,-3.390625 h -1.065625 v -1.43375 h 3.565 v 1.43375 h -1.026875 l -4.165625,8.970625 q -0.05813,0.11625 -0.2325,0.50375 -0.174375,0.406875 -0.368125,0.6975 -0.19375,0.31 -0.42625,0.523125 -0.523125,0.484375 -1.43375,0.406875 -1.065625,-0.03875 -1.58875,-0.561875 -0.600625,-0.600625 -0.600625,-1.66625 0,-0.561875 0.3875,-1.04625 0.406875,-0.484375 1.0075,-0.484375 z" />
    </g>
    <g
       id="text70"
       style="font-size:19.375px;font-family:'IdeaFonts JianSong';fill:#5179b1"
       aria-label="o">
      <path
         id="path148"
         style="font-size:19.375px;font-family:'IdeaFonts JianSong';fill:#5179b1"
         d="m -21.120586,1.8200391 q 0,2.305625 -1.143125,3.60375 -1.143125,1.27875 -3.13875,1.27875 -1.220625,0 -2.189375,-0.58125 -0.949375,-0.58125 -1.51125,-1.685625 -0.5425,-1.104375 -0.5425,-2.615625 0,-1.43375004 0.5425,-2.53812504 0.561875,-1.10437496 1.530625,-1.70499996 0.96875,-0.62 2.17,-0.62 1.298125,0 2.266875,0.600625 0.96875,0.600625 1.491875,1.70499996 0.523125,1.104375 0.523125,2.55750004 z m -4.30125,-3.565 q -1.065625,0 -1.065625,3.4875 0,1.97625 0.290625,2.731875 0.290625,0.73625 0.775,0.73625 0.5425,0 0.833125,-0.73625 0.31,-0.73625 0.31,-2.731875 0,-1.95687504 -0.31,-2.71250004 -0.31,-0.77499996 -0.833125,-0.77499996 z" />
    </g>
    <g
       id="text72"
       style="font-size:19.375px;font-family:'IdeaFonts JianSong';fill:#5179b1"
       aria-label="n">
      <path
         id="path151"
         style="font-size:19.375px;font-family:'IdeaFonts JianSong';fill:#5179b1"
         d="m -19.936523,5.1137891 h 1.026875 v -6.723125 h -0.949375 v -0.8525 l 4.049375,-0.73625 v 1.608125 q 0.58125,-0.678125 1.336875,-1.065625 0.775,-0.3875 1.6275,-0.3875 1.026875,0 1.685625,0.58125 0.65875,0.561875 0.65875,1.85999996 V 5.1137891 h 1.0074996 v 1.395 h -4.8824996 v -1.395 h 0.6975 V 0.09566406 q 0,-0.50375 -0.213125,-0.716875 -0.213125,-0.2325 -0.484375,-0.174375 -0.523125,0.135625 -0.8525,0.445625 -0.31,0.290625 -0.58125,0.794375 V 5.1137891 h 0.871875 v 1.395 h -4.99875 z" />
    </g>
    <g
       id="text74"
       style="font-size:19.375px;font-family:'IdeaFonts JianSong';fill:#5179b1" />
    <g
       id="text76"
       style="font-size:19.375px;font-family:'IdeaFonts JianSong';fill:#5179b1"
       aria-label="R">
      <path
         id="path155"
         style="font-size:19.375px;font-family:'IdeaFonts JianSong';fill:#5179b1"
         d="m 1.7993359,5.1525391 h 1.35625 v -11.50875 h -1.085 v -1.395 h 7.653125 q 1.8987501,0 2.8868751,1.20125 0.31,0.3875 0.465,0.93 0.174375,0.5425 0.174375,1.104375 0,0.93 -0.368125,1.6275 -0.445625,0.794375 -1.414375,1.35625 -0.96875,0.54249996 -2.0343751,0.63937496 1.7631251,0.174375 2.2281251,1.298125 0.213125,0.50375 0.31,1.35625004 0.09687,0.833125 0.05813,1.646875 0,0.34875 0.135625,0.639375 0.155,0.290625 0.445625,0.290625 0.3875,0 0.716875,-0.561875 0.329375,-0.561875 0.5425,-1.395 l 0.833125,0.174375 q -0.31,2.5575 -1.395,3.468125 -0.406875,0.34875 -0.96875,0.50375 -0.561875,0.155 -1.104375,0.11625 -0.58125,0 -1.085,-0.251875 -0.5037501,-0.251875 -0.8137501,-0.73625 -0.406875,-0.639375 -0.523125,-1.336875 -0.096875,-0.716875 -0.135625,-1.86 -0.019375,-0.775 -0.0775,-1.24 -0.058125,-0.46500004 -0.27125,-0.91062504 -0.155,-0.290625 -0.465,-0.406875 -0.31,-0.11625 -0.775,-0.174375 h -0.62 V 5.1525391 h 1.530625 v 1.43375 h -6.2 z m 5.425,-6.78125 q 1.24,0 1.86,-0.73625 0.368125,-0.445625 0.523125,-1.026875 0.155,-0.600625 0.11625,-1.220625 -0.058125,-0.775 -0.678125,-1.259375 -0.600625,-0.484375 -1.4725,-0.484375 h -1.104375 v 4.7275 z" />
    </g>
    <g
       id="text78"
       style="font-size:19.375px;font-family:'IdeaFonts JianSong';fill:#5179b1"
       aria-label="e">
      <path
         id="path158"
         style="font-size:19.375px;font-family:'IdeaFonts JianSong';fill:#5179b1"
         d="m 24.722148,3.5831641 q -0.50375,1.298125 -1.530625,2.034375 -1.026875,0.716875 -2.499375,0.8525 -0.89125,0.058125 -1.86,-0.34875 -0.96875,-0.406875 -1.58875,-1.12375 -0.600625,-0.716875 -0.871875,-1.724375 -0.27125,-1.0075 -0.27125,-2.111875 0,-0.87187504 0.290625,-1.66625004 0.31,-0.81374996 0.89125,-1.45312496 0.5425,-0.600625 1.3175,-0.910625 0.775,-0.329375 1.58875,-0.31 0.833125,-0.03875 1.6275,0.251875 0.794375,0.27125 1.35625,0.833125 1.220625,1.22062496 1.220625,3.75875 l -5.211875,0.019375 q 0.01938,0.93 0.11625,1.530625 0.11625,0.600625 0.3875,1.04625 0.2325,0.3875 0.600625,0.58125 0.3875,0.174375 0.833125,0.174375 0.73625,0 1.375625,-0.42625 0.65875,-0.42625 1.298125,-1.414375 z m -5.27,-4.61125 q -0.174375,0.60062496 -0.2325,1.53062496 h 2.28625 q 0.01938,-0.8525 -0.31,-1.68562496 -0.135625,-0.31 -0.368125,-0.50375 -0.2325,-0.19375 -0.484375,-0.19375 -0.27125,0 -0.523125,0.2325 -0.251875,0.2325 -0.368125,0.62 z" />
    </g>
    <g
       id="text80"
       style="font-size:19.375px;font-family:'IdeaFonts JianSong';fill:#5179b1"
       aria-label="s">
      <path
         id="path161"
         style="font-size:19.375px;font-family:'IdeaFonts JianSong';fill:#5179b1"
         d="m 32.90543,-3.0043359 v 3.11937496 h -0.755625 q -0.0775,-0.62 -0.329375,-1.085 -0.251875,-0.48437496 -0.600625,-0.73624996 -0.31,-0.213125 -0.65875,-0.27125 -0.34875,-0.0775 -0.96875,-0.11625 -0.62,0.0775 -0.93,0.290625 -0.11625,0.0775 -0.19375,0.213125 -0.05812,0.11625 -0.05812,0.251875 v 0.058125 q 0,0.34874996 0.251875,0.54249996 0.27125,0.174375 0.73625,0.34875 l 1.0075,0.3875 1.181875,0.484375 q 0.62,0.251875 1.143125,0.69750004 0.5425,0.42625 0.794375,1.0075 0.251875,0.523125 0.251875,1.181875 0,0.62 -0.27125,1.259375 -0.406875,0.93 -1.3175,1.4725 -0.910625,0.523125 -1.918125,0.523125 -0.639375,0 -1.298125,-0.174375 -0.639375,-0.174375 -1.12375,-0.50375 l -0.42625,-0.290625 q -0.11625,-0.0775 -0.213125,-0.0775 h -0.03875 q -0.155,0.096875 -0.213125,0.368125 -0.05813,0.251875 -0.09688,0.716875 h -0.6975 v -3.4875 h 0.65875 q 0.19375,0.523125 0.561875,1.026875 0.368125,0.50375 0.81375,0.794375 0.34875,0.2325 0.81375,0.368125 0.484375,0.11625 0.949375,0.11625 0.50375,0 0.89125,-0.27125 0.27125,-0.213125 0.27125,-0.5425 0,-0.096875 -0.03875,-0.213125 -0.174375,-0.50375 -0.600625,-0.775 -0.406875,-0.27125 -1.1625,-0.600625 -1.259375,-0.523125 -2.015,-1.0075 -0.5425,-0.31 -0.775,-0.775 -0.290625,-0.56187504 -0.290625,-1.25937504 0,-0.716875 0.31,-1.45312496 0.34875,-0.794375 1.20125,-1.181875 0.871875,-0.406875 1.879375,-0.406875 0.89125,0 1.9375,0.523125 0.155,0.11625 0.31,0.11625 h 0.03875 q 0.09688,-0.019375 0.19375,-0.213125 l 0.155,-0.42625 z" />
    </g>
    <g
       id="text82"
       style="font-size:19.375px;font-family:'IdeaFonts JianSong';fill:#5179b1"
       aria-label="e">
      <path
         id="path164"
         style="font-size:19.375px;font-family:'IdeaFonts JianSong';fill:#5179b1"
         d="m 43.675273,3.5831641 q -0.50375,1.298125 -1.530625,2.034375 -1.026875,0.716875 -2.499375,0.8525 -0.89125,0.058125 -1.86,-0.34875 -0.96875,-0.406875 -1.58875,-1.12375 -0.600625,-0.716875 -0.871875,-1.724375 -0.27125,-1.0075 -0.27125,-2.111875 0,-0.87187504 0.290625,-1.66625004 0.31,-0.81374996 0.89125,-1.45312496 0.5425,-0.600625 1.3175,-0.910625 0.775,-0.329375 1.58875,-0.31 0.833125,-0.03875 1.6275,0.251875 0.794375,0.27125 1.35625,0.833125 1.220625,1.22062496 1.220625,3.75875 l -5.211875,0.019375 q 0.01938,0.93 0.11625,1.530625 0.11625,0.600625 0.3875,1.04625 0.2325,0.3875 0.600625,0.58125 0.3875,0.174375 0.833125,0.174375 0.73625,0 1.375625,-0.42625 0.65875,-0.42625 1.298125,-1.414375 z m -5.27,-4.61125 q -0.174375,0.60062496 -0.2325,1.53062496 h 2.28625 q 0.01937,-0.8525 -0.31,-1.68562496 -0.135625,-0.31 -0.368125,-0.50375 -0.2325,-0.19375 -0.484375,-0.19375 -0.27125,0 -0.523125,0.2325 -0.251875,0.2325 -0.368125,0.62 z" />
    </g>
    <g
       id="text84"
       style="font-size:19.375px;font-family:'IdeaFonts JianSong';fill:#5179b1"
       aria-label="a">
      <path
         id="path167"
         style="font-size:19.375px;font-family:'IdeaFonts JianSong';fill:#5179b1"
         d="m 49.533555,0.63816406 v -1.35625 q 0,-0.29062496 -0.01937,-0.56187496 -0.01938,-0.290625 -0.09688,-0.50375 -0.135625,-0.31 -0.5425,-0.31 -0.368125,0 -0.65875,0.174375 -0.135625,0.058125 -0.135625,0.213125 l 0.01938,0.0775 q 0,0.0775 0.05812,0.155 0.05812,0.0775 0.0775,0.096875 0.2325,0.290625 0.2325,0.71687496 0,0.6975 -0.484375,1.065625 -0.465,0.34875 -1.143125,0.31 -0.484375,-0.019375 -0.833125,-0.445625 -0.329375,-0.42625 -0.329375,-0.96875 0,-0.52312496 0.27125,-1.00749996 0.27125,-0.50375 0.6975,-0.755625 1.085,-0.716875 2.51875,-0.716875 1.66625,0 2.67375,0.775 0.775,0.561875 0.775,2.07312496 V 3.7187891 q 0,0.445625 0.0775,0.65875 0.05813,0.11625 0.19375,0.11625 0.05813,0 0.09687,-0.019375 0.0775,-0.019375 0.19375,-0.11625 0.135625,-0.096875 0.251875,-0.213125 l 0.5425,0.445625 q -0.484375,0.833125 -1.181875,1.336875 -0.6975,0.484375 -1.414375,0.50375 -0.42625,0.058125 -0.910625,-0.096875 -0.465,-0.174375 -0.62,-0.50375 L 49.70793,5.5400391 q -1.104375,0.794375 -2.383125,0.794375 -0.600625,0 -1.143125,-0.213125 -0.523125,-0.213125 -0.833125,-0.639375 -0.3875,-0.523125 -0.3875,-1.35625 0,-0.368125 0.05812,-0.678125 0.2325,-0.755625 0.833125,-1.24 0.600625,-0.50375 1.220625,-0.755625 0.639375,-0.251875 1.7825,-0.62000004 z m 0,3.77812504 v -2.59625 q -0.03875,0.019375 -0.09687,0.03875 -0.05813,0.019375 -0.11625,0.058125 -0.8525,0.329375 -1.298125,1.085 -0.19375,0.34875 -0.19375,0.716875 0,0.290625 0.174375,0.561875 0.135625,0.213125 0.34875,0.34875 0.2325,0.135625 0.484375,0.135625 0.465,0.03875 0.600625,-0.19375 z" />
    </g>
    <g
       id="text86"
       style="font-size:19.375px;font-family:'IdeaFonts JianSong';fill:#5179b1"
       aria-label="r">
      <path
         id="path170"
         style="font-size:19.375px;font-family:'IdeaFonts JianSong';fill:#5179b1"
         d="m 55.178711,5.0750391 h 1.220625 v -6.529375 l -1.085,0.019375 v -0.988125 l 3.351875,-0.775 h 0.910625 l 0.01937,1.58875 q 0.34875,-0.5425 0.93,-0.89125 0.600625,-0.34875 1.20125,-0.34875 0.34875,0 0.73625,0.135625 0.406875,0.135625 0.678125,0.368125 0.42625,0.406875 0.42625,1.143125 0,0.21312496 -0.0775,0.56187496 -0.11625,0.465 -0.523125,0.73625 -0.3875,0.27125 -0.949375,0.27125 -0.406875,0 -0.794375,-0.31 -0.3875,-0.31 -0.3875,-0.678125 0,-0.0775 0.05813,-0.31 0.0775,-0.23249996 -0.03875,-0.27124996 -0.01938,-0.019375 -0.05813,-0.019375 -0.155,0 -0.329375,0.174375 -0.58125,0.58124996 -0.871875,1.53062496 V 5.0750391 h 1.12375 v 1.43375 h -5.54125 z" />
    </g>
    <g
       id="text88"
       style="font-size:19.375px;font-family:'IdeaFonts JianSong';fill:#5179b1"
       aria-label="c">
      <path
         id="path173"
         style="font-size:19.375px;font-family:'IdeaFonts JianSong';fill:#5179b1"
         d="m 72.708008,3.8931641 q -0.445625,1.298125 -1.4725,1.9375 -1.0075,0.639375 -2.20875,0.639375 -0.93,0 -1.763125,-0.3875 -0.833125,-0.406875 -1.414375,-1.24 -0.42625,-0.58125 -0.65875,-1.491875 -0.2325,-0.910625 -0.2325,-1.918125 0,-0.368125 0.01937,-0.54250004 0.03875,-0.794375 0.368125,-1.530625 0.329375,-0.73624996 0.89125,-1.29812496 0.639375,-0.62 1.43375,-0.93 0.794375,-0.329375 1.66625,-0.329375 1.0075,0 1.86,0.406875 0.871875,0.406875 1.20125,1.143125 0.19375,0.484375 0.19375,0.91062496 0,0.465 -0.213125,0.89125 -0.213125,0.368125 -0.600625,0.600625 -0.368125,0.2325 -0.794375,0.213125 -0.406875,0.019375 -0.755625,-0.19375 -0.329375,-0.2325 -0.50375,-0.600625 -0.174375,-0.3875 -0.135625,-0.775 0.03875,-0.60062496 0.406875,-0.81374996 l 0.155,-0.058125 q 0.19375,-0.0775 0.19375,-0.213125 v -0.019375 q -0.03875,-0.096875 -0.155,-0.135625 -0.09687,-0.058125 -0.11625,-0.058125 -0.174375,-0.058125 -0.34875,-0.058125 -0.31,0 -0.523125,0.135625 -0.31,0.19375 -0.5425,0.561875 -0.2325,0.36812496 -0.290625,0.75562496 -0.155,0.639375 -0.155,1.4725 0,0.38750004 0.0775,1.20125004 0.05813,0.561875 0.27125,1.143125 0.2325,0.561875 0.58125,0.988125 0.34875,0.445625 1.04625,0.445625 0.290625,0 0.406875,-0.03875 0.31,-0.0775 0.678125,-0.3875 0.368125,-0.31 0.639375,-0.755625 z" />
    </g>
    <g
       id="text90"
       style="font-size:19.375px;font-family:'IdeaFonts JianSong';fill:#5179b1"
       aria-label="h">
      <path
         id="path176"
         style="font-size:19.375px;font-family:'IdeaFonts JianSong';fill:#5179b1"
         d="m 84.497461,5.1525391 v 1.43375 h -4.8825 v -1.43375 h 0.81375 V 0.13441406 q 0,-0.5425 -0.251875,-0.81375 -0.213125,-0.251875 -0.600625,-0.251875 -0.62,0 -1.259375,0.89125 V 5.1525391 h 0.73625 v 1.43375 h -4.979375 v -1.43375 h 1.085 v -11.140625 h -0.949375 v -0.871875 l 3.06125,-0.81375 h 1.065625 l -0.01938,6.025625 q 0.62,-0.65875 1.375625,-1.065625 0.755625,-0.42625 1.51125,-0.42625 1.04625,0 1.724375,0.62 0.58125,0.5425 0.58125,1.89874996 V 5.1525391 Z" />
    </g>
    <g
       id="text92"
       style="font-size:12px;font-family:'Arial Unicode MS';fill:#666666"
       aria-label="T">
      <path
         id="path179"
         style="font-size:12px;font-family:'Arial Unicode MS';fill:#666666"
         d="m -46.417969,18.09082 h -2.841797 v 7.570313 h -1.142578 V 18.09082 h -2.818359 v -1.019531 h 6.802734 z" />
    </g>
    <g
       id="text94"
       style="font-size:12px;font-family:'Arial Unicode MS';fill:#666666"
       aria-label="a">
      <path
         id="path182"
         style="font-size:12px;font-family:'Arial Unicode MS';fill:#666666"
         d="m -39.541016,25.661133 h -1.107421 q -0.152344,-0.292969 -0.216797,-0.767578 -1.060547,0.914062 -2.291016,0.914062 -0.984375,0 -1.552734,-0.492187 -0.56836,-0.492188 -0.56836,-1.300782 0,-0.773437 0.544922,-1.271484 0.550781,-0.503906 1.904297,-0.667969 l 0.984375,-0.146484 q 0.550781,-0.08789 0.908203,-0.216797 0,-0.474609 -0.0293,-0.667969 -0.0293,-0.199218 -0.175781,-0.410156 -0.140625,-0.210937 -0.457031,-0.339844 -0.316406,-0.128906 -0.84961,-0.128906 -0.679687,0 -1.078125,0.251953 -0.392578,0.251953 -0.539062,0.9375 l -1.03125,-0.134765 q 0.169922,-0.955079 0.873047,-1.435547 0.703125,-0.480469 1.933594,-0.480469 1.11914,0 1.640625,0.333984 0.527343,0.328125 0.644531,0.796875 0.123047,0.46875 0.123047,1.207032 v 1.417968 q 0,1.294922 0.04687,1.740235 0.05273,0.439453 0.292968,0.861328 z m -1.394531,-2.736328 v -0.38086 q -0.826172,0.275391 -2.021484,0.439453 -1.195313,0.158204 -1.195313,1.007813 0,0.427734 0.322266,0.708984 0.322266,0.275391 0.925781,0.275391 0.779297,0 1.371094,-0.462891 0.597656,-0.46875 0.597656,-1.58789 z" />
    </g>
    <g
       id="text96"
       style="font-size:12px;font-family:'Arial Unicode MS';fill:#666666"
       aria-label="c">
      <path
         id="path185"
         style="font-size:12px;font-family:'Arial Unicode MS';fill:#666666"
         d="m -33.027344,23.510742 q -0.205078,1.189453 -0.9375,1.746094 -0.732422,0.550781 -1.658203,0.550781 -1.353515,0 -2.091797,-0.884765 -0.738281,-0.890625 -0.738281,-2.355469 0,-1.212891 0.421875,-1.939453 0.427734,-0.732422 1.066406,-1.025391 0.638672,-0.298828 1.341797,-0.298828 0.960938,0 1.640625,0.498047 0.685547,0.498047 0.84375,1.464844 l -1.019531,0.158203 q -0.158203,-0.626953 -0.515625,-0.94336 -0.351563,-0.316406 -0.902344,-0.316406 -0.884765,0 -1.341797,0.626953 -0.457031,0.626953 -0.457031,1.751953 0,1.148438 0.445313,1.775391 0.451171,0.621094 1.294921,0.621094 0.679688,0 1.066407,-0.386719 0.392578,-0.392578 0.492187,-1.171875 z" />
    </g>
    <g
       id="text98"
       style="font-size:12px;font-family:'Arial Unicode MS';fill:#666666"
       aria-label="h">
      <path
         id="path188"
         style="font-size:12px;font-family:'Arial Unicode MS';fill:#666666"
         d="m -26.789062,25.661133 h -1.060547 v -3.925781 q 0,-0.761719 -0.328125,-1.142579 -0.328125,-0.380859 -0.978516,-0.380859 -0.644531,0 -1.154297,0.451172 -0.503906,0.445312 -0.503906,1.599609 v 3.398438 h -1.054688 v -8.589844 h 1.054688 v 3.082031 q 0.75,-0.849609 1.875,-0.849609 0.603516,0 1.154297,0.246094 0.550781,0.246093 0.773437,0.755859 0.222657,0.509766 0.222657,1.417969 z" />
    </g>
    <g
       id="text100"
       style="font-size:12px;font-family:'Arial Unicode MS';fill:#666666"
       aria-label="y">
      <path
         id="path191"
         style="font-size:12px;font-family:'Arial Unicode MS';fill:#666666"
         d="m -19.953125,19.444336 -2.378906,6.322266 q -0.0059,0.01172 -0.01172,0.04102 -0.339844,1.054688 -0.796875,1.710938 -0.451172,0.662109 -1.289062,0.662109 -0.28125,0 -0.685547,-0.117187 l -0.105469,-0.996094 q 0.304687,0.09375 0.597656,0.09375 0.585938,0 0.808594,-0.322266 0.228516,-0.322265 0.509766,-1.166015 l -2.361329,-6.228516 h 1.136719 l 1.464844,4.072266 q 0.128906,0.375 0.275391,0.966796 h 0.02344 q 0.146484,-0.679687 0.375,-1.294921 l 1.365234,-3.744141 z" />
    </g>
    <g
       id="text102"
       style="font-size:12px;font-family:'Arial Unicode MS';fill:#666666"
       aria-label="o">
      <path
         id="path194"
         style="font-size:12px;font-family:'Arial Unicode MS';fill:#666666"
         d="m -15.900391,19.303711 q 1.259766,0 2.085938,0.820312 0.832031,0.820313 0.832031,2.332032 0,1.833984 -0.896484,2.595703 -0.896485,0.755859 -2.021485,0.755859 -1.177734,0 -2.044921,-0.779297 -0.867188,-0.779297 -0.867188,-2.472656 0,-1.640625 0.837891,-2.443359 0.83789,-0.808594 2.074218,-0.808594 z m 0,5.636719 q 0.902344,0 1.371094,-0.667969 0.46875,-0.667969 0.46875,-1.757813 0,-1.166015 -0.533203,-1.757812 -0.527344,-0.591797 -1.306641,-0.591797 -0.802734,0 -1.318359,0.603516 -0.515625,0.597656 -0.515625,1.787109 0,1.183594 0.521484,1.787109 0.527344,0.597657 1.3125,0.597657 z" />
    </g>
    <g
       id="text104"
       style="font-size:12px;font-family:'Arial Unicode MS';fill:#666666"
       aria-label="n">
      <path
         id="path197"
         style="font-size:12px;font-family:'Arial Unicode MS';fill:#666666"
         d="m -6.7265625,25.661133 h -1.0605469 v -3.779297 q 0,-0.955078 -0.3457031,-1.3125 -0.3398438,-0.357422 -0.9492188,-0.357422 -0.46875,0 -0.890625,0.228516 -0.4160157,0.228515 -0.5917967,0.644531 -0.175781,0.416016 -0.175781,1.177734 v 3.398438 h -1.054688 v -6.216797 h 0.949219 v 0.878906 h 0.02344 q 0.333985,-0.509765 0.820313,-0.761719 0.4921874,-0.257812 1.1367186,-0.257812 0.4921875,0 0.9726563,0.175781 0.4804687,0.175781 0.75,0.527344 0.2753906,0.351562 0.3457031,0.75 0.070312,0.398437 0.070312,1.078125 z" />
    </g>
    <g
       id="text106"
       style="font-size:12px;font-family:'Arial Unicode MS';fill:#666666" />
    <g
       id="text108"
       style="font-size:12px;font-family:'Arial Unicode MS';fill:#666666"
       aria-label="R">
      <path
         id="path201"
         style="font-size:12px;font-family:'Arial Unicode MS';fill:#666666"
         d="M 8.515625,25.661133 H 7.0859375 Q 5.8027344,23.633789 5.4921875,23.170898 5.1816406,22.708008 4.8359375,22.379883 4.4960937,22.045898 4.1914062,21.958008 3.8925781,21.870117 3.3945313,21.870117 h -1.3125 v 3.791016 H 0.9453125 v -8.589844 h 3.8027344 q 0.7792968,0 1.3066406,0.09961 0.5273437,0.09961 0.9257812,0.421875 0.3984375,0.316407 0.609375,0.802735 0.2167969,0.486328 0.2167969,1.02539 0,0.972657 -0.6152344,1.564454 -0.6152343,0.591796 -1.7929687,0.75 v 0.02344 q 0.8613281,0.380859 1.6171875,1.564453 z M 2.0820313,20.850586 h 2.4374999 q 0.7382813,0 1.1660157,-0.123047 0.4335937,-0.128906 0.6914062,-0.492187 0.2578125,-0.363282 0.2578125,-0.814454 0,-0.585937 -0.4277344,-0.996093 Q 5.7792969,18.014648 4.7949219,18.014648 H 2.0820313 Z" />
    </g>
    <g
       id="text110"
       style="font-size:12px;font-family:'Arial Unicode MS';fill:#666666"
       aria-label="e">
      <path
         id="path204"
         style="font-size:12px;font-family:'Arial Unicode MS';fill:#666666"
         d="M 15.439453,22.819336 H 10.78125 q 0.06445,1.03125 0.585938,1.576172 0.527343,0.544922 1.3125,0.544922 0.603515,0 1.013671,-0.316407 0.410157,-0.322265 0.626954,-0.966796 l 1.083984,0.134765 q -0.263672,0.972656 -0.966797,1.494141 -0.703125,0.521484 -1.757812,0.521484 -1.400391,0 -2.191407,-0.855469 -0.785156,-0.861328 -0.785156,-2.349609 0,-1.470703 0.761719,-2.384766 0.767578,-0.914062 2.15625,-0.914062 0.679687,0 1.30664,0.298828 0.632813,0.298828 1.072266,1.019531 0.439453,0.714844 0.439453,2.197266 z m -1.083984,-0.867188 q -0.06445,-0.949218 -0.591797,-1.365234 -0.521484,-0.421875 -1.142578,-0.421875 -0.744141,0 -1.22461,0.498047 -0.480468,0.498047 -0.55664,1.289062 z" />
    </g>
    <g
       id="text112"
       style="font-size:12px;font-family:'Arial Unicode MS';fill:#666666"
       aria-label="s">
      <path
         id="path207"
         style="font-size:12px;font-family:'Arial Unicode MS';fill:#666666"
         d="m 20.693359,21.18457 q -0.07031,-0.509765 -0.416015,-0.761718 -0.339844,-0.257813 -0.949219,-0.257813 -0.603516,0 -0.978516,0.205078 -0.36914,0.205078 -0.36914,0.597656 0,0.369141 0.292968,0.527344 0.298829,0.158203 1.171875,0.386719 0.984375,0.251953 1.470704,0.445312 0.492187,0.19336 0.761718,0.544922 0.275391,0.345703 0.275391,0.966797 0,0.832031 -0.679688,1.400391 -0.679687,0.568359 -1.816406,0.568359 -1.183594,0 -1.851562,-0.498047 -0.66211,-0.503906 -0.814453,-1.505859 l 1.048828,-0.158203 q 0.08203,0.65039 0.480468,0.972656 0.404297,0.322266 1.125,0.322266 0.691407,0 1.060547,-0.28711 0.369141,-0.292968 0.369141,-0.708984 0,-0.28125 -0.169922,-0.451172 -0.169922,-0.169922 -0.427734,-0.251953 -0.251953,-0.08789 -1.142578,-0.304688 -1.324219,-0.316406 -1.751954,-0.767578 -0.421875,-0.451172 -0.421875,-1.078125 0,-0.779297 0.621094,-1.283203 0.621094,-0.503906 1.669922,-0.503906 1.113281,0 1.728516,0.439453 0.621093,0.433594 0.74414,1.300781 z" />
    </g>
    <g
       id="text114"
       style="font-size:12px;font-family:'Arial Unicode MS';fill:#666666"
       aria-label="e">
      <path
         id="path210"
         style="font-size:12px;font-family:'Arial Unicode MS';fill:#666666"
         d="M 28.876953,22.819336 H 24.21875 q 0.06445,1.03125 0.585937,1.576172 0.527344,0.544922 1.3125,0.544922 0.603516,0 1.013672,-0.316407 0.410157,-0.322265 0.626953,-0.966796 l 1.083985,0.134765 q -0.263672,0.972656 -0.966797,1.494141 -0.703125,0.521484 -1.757813,0.521484 -1.40039,0 -2.191406,-0.855469 -0.785156,-0.861328 -0.785156,-2.349609 0,-1.470703 0.761719,-2.384766 0.767578,-0.914062 2.15625,-0.914062 0.679687,0 1.30664,0.298828 0.632813,0.298828 1.072266,1.019531 0.439453,0.714844 0.439453,2.197266 z m -1.083984,-0.867188 q -0.06445,-0.949218 -0.591797,-1.365234 -0.521485,-0.421875 -1.142578,-0.421875 -0.744141,0 -1.22461,0.498047 -0.480468,0.498047 -0.55664,1.289062 z" />
    </g>
    <g
       id="text116"
       style="font-size:12px;font-family:'Arial Unicode MS';fill:#666666"
       aria-label="a">
      <path
         id="path213"
         style="font-size:12px;font-family:'Arial Unicode MS';fill:#666666"
         d="m 35.865234,25.661133 h -1.107422 q -0.152343,-0.292969 -0.216796,-0.767578 -1.060547,0.914062 -2.291016,0.914062 -0.984375,0 -1.552734,-0.492187 -0.56836,-0.492188 -0.56836,-1.300782 0,-0.773437 0.544922,-1.271484 0.550781,-0.503906 1.904297,-0.667969 L 33.5625,21.928711 q 0.550781,-0.08789 0.908203,-0.216797 0,-0.474609 -0.0293,-0.667969 -0.0293,-0.199218 -0.175781,-0.410156 -0.140625,-0.210937 -0.457031,-0.339844 -0.316407,-0.128906 -0.84961,-0.128906 -0.679687,0 -1.078125,0.251953 -0.392578,0.251953 -0.539062,0.9375 l -1.03125,-0.134765 q 0.169922,-0.955079 0.873047,-1.435547 0.703125,-0.480469 1.933593,-0.480469 1.119141,0 1.640625,0.333984 0.527344,0.328125 0.644532,0.796875 0.123047,0.46875 0.123047,1.207032 v 1.417968 q 0,1.294922 0.04687,1.740235 0.05273,0.439453 0.292968,0.861328 z m -1.394531,-2.736328 v -0.38086 q -0.826172,0.275391 -2.021484,0.439453 -1.195313,0.158204 -1.195313,1.007813 0,0.427734 0.322266,0.708984 0.322265,0.275391 0.925781,0.275391 0.779297,0 1.371094,-0.462891 0.597656,-0.46875 0.597656,-1.58789 z" />
    </g>
    <g
       id="text118"
       style="font-size:12px;font-family:'Arial Unicode MS';fill:#666666"
       aria-label="r">
      <path
         id="path216"
         style="font-size:12px;font-family:'Arial Unicode MS';fill:#666666"
         d="m 40.263672,19.637695 -0.363281,0.972657 q -0.392579,-0.228516 -0.767579,-0.228516 -0.591796,0 -0.896484,0.533203 -0.304687,0.527344 -0.304687,1.482422 v 3.263672 h -1.054688 v -6.216797 h 0.960938 v 0.9375 h 0.02344 q 0.503906,-1.078125 1.318359,-1.078125 0.539063,0 1.083985,0.333984 z" />
    </g>
    <g
       id="text120"
       style="font-size:12px;font-family:'Arial Unicode MS';fill:#666666"
       aria-label="c">
      <path
         id="path219"
         style="font-size:12px;font-family:'Arial Unicode MS';fill:#666666"
         d="m 46.941406,23.510742 q -0.205078,1.189453 -0.9375,1.746094 -0.732422,0.550781 -1.658203,0.550781 -1.353516,0 -2.091797,-0.884765 -0.738281,-0.890625 -0.738281,-2.355469 0,-1.212891 0.421875,-1.939453 0.427734,-0.732422 1.066406,-1.025391 0.638672,-0.298828 1.341797,-0.298828 0.960938,0 1.640625,0.498047 0.685547,0.498047 0.84375,1.464844 l -1.019531,0.158203 q -0.158203,-0.626953 -0.515625,-0.94336 -0.351563,-0.316406 -0.902344,-0.316406 -0.884766,0 -1.341797,0.626953 -0.457031,0.626953 -0.457031,1.751953 0,1.148438 0.445312,1.775391 0.451172,0.621094 1.294922,0.621094 0.679688,0 1.066407,-0.386719 0.392578,-0.392578 0.492187,-1.171875 z" />
    </g>
    <g
       id="text122"
       style="font-size:12px;font-family:'Arial Unicode MS';fill:#666666"
       aria-label="h">
      <path
         id="path222"
         style="font-size:12px;font-family:'Arial Unicode MS';fill:#666666"
         d="m 53.179687,25.661133 h -1.060546 v -3.925781 q 0,-0.761719 -0.328125,-1.142579 -0.328125,-0.380859 -0.978516,-0.380859 -0.644531,0 -1.154297,0.451172 -0.503906,0.445312 -0.503906,1.599609 v 3.398438 h -1.054688 v -8.589844 h 1.054688 v 3.082031 q 0.75,-0.849609 1.875,-0.849609 0.603515,0 1.154297,0.246094 0.550781,0.246093 0.773437,0.755859 0.222656,0.509766 0.222656,1.417969 z" />
    </g>
  </g>
</svg>
